# xmcd CD database file
#
# Track frame offsets:
#	150
#	12107
#	29055
#	46162
#	59357
#	80829
#	97029
#	111532
#	128037
#	144465
#	160550
#
# Disc length: 3023 seconds
#
# Revision: 0
# Processed by: cddbd v1.5PL3 Copyright (c) Steve Scherf et al.
# Submitted via: CDex 1.50beta10
#
DISCID=930bcd0b
DTITLE=TRAVIS - 12 Memories
DYEAR=2003
DGENRE=Rock and Roll
TTITLE0=Quicksand
TTITLE1=The Beautiful Occupation
TTITLE2=Re-Offender
TTITLE3=Peace The Fuck Out
TTITLE4=How Many Hearts
TTITLE5=Paperclips
TTITLE6=Somewhere Else
TTITLE7=Love Will Come Through
TTITLE8=Mid-Life Krysis
TTITLE9=Happy To Hang Around
TTITLE10=Walking Down The Hill
EXTD=YEAR: 2003
EXTT0=
EXTT1=
EXTT2=
EXTT3=
EXTT4=
EXTT5=
EXTT6=
EXTT7=
EXTT8=
EXTT9=
EXTT10=
PLAYORDER=
